<svg xmlns="http://www.w3.org/2000/svg" version="1.1" xmlns:xlink="http://www.w3.org/1999/xlink" xmlns:svgjs="http://svgjs.dev/svgjs" width="2000" height="1999" viewBox="0 0 2000 1999"><g transform="matrix(1,0,0,1,-0.431486880466764,-0.4312711370263287)"><svg viewBox="0 0 343 343" data-background-color="#ffffff" preserveAspectRatio="xMidYMid meet" height="1999" width="2000" xmlns="http://www.w3.org/2000/svg" xmlns:xlink="http://www.w3.org/1999/xlink"><g id="tight-bounds" transform="matrix(1,0,0,1,0.0740000000000407,0.07400000000001228)"><svg viewBox="0 0 342.85155851775386 342.85155851775386" height="342.85155851775386" width="342.85155851775386"><g><svg></svg></g><g><svg viewBox="0 0 342.85155851775386 342.85155851775386" height="342.85155851775386" width="342.85155851775386"><g><path d="M0 171.426c0-94.676 76.75-171.426 171.426-171.426 94.676 0 171.426 76.75 171.426 171.426 0 94.676-76.75 171.426-171.426 171.426-94.676 0-171.426-76.75-171.426-171.426zM171.426 328.599c86.804 0 157.173-70.369 157.173-157.173 0-86.804-70.369-157.173-157.173-157.173-86.804 0-157.173 70.369-157.173 157.173 0 86.804 70.369 157.173 157.173 157.173z" data-fill-palette-color="tertiary" fill="#fb7e14" stroke="transparent"></path><ellipse rx="164.56874808852186" ry="164.56874808852186" cx="171.42577925887693" cy="171.42577925887693" fill="#fb7e14" stroke="transparent" stroke-width="0" fill-opacity="1" data-fill-palette-color="tertiary"></ellipse></g><g transform="matrix(1,0,0,1,64.84655864529837,92.40275552426185)"><svg viewBox="0 0 213.1584412271571 158.04604746923016" height="158.04604746923016" width="213.1584412271571"><g><svg viewBox="0 0 213.1584412271571 158.04604746923016" height="158.04604746923016" width="213.1584412271571"><g><svg viewBox="0 0 213.1584412271571 158.04604746923016" height="158.04604746923016" width="213.1584412271571"><g><svg viewBox="0 0 213.1584412271571 158.04604746923016" height="158.04604746923016" width="213.1584412271571"><g><svg viewBox="0 0 213.1584412271571 158.04604746923016" height="158.04604746923016" width="213.1584412271571"><g><svg viewBox="0 0 213.1584412271571 158.04604746923016" height="158.04604746923016" width="213.1584412271571"><g transform="matrix(1,0,0,1,0,0)"><svg width="213.1584412271571" viewBox="0.9000000357627869 -36.54999923706055 49.69999694824219 36.849998474121094" height="158.04604746923016" data-palette-color="#ffffff"><path d="M11.8 0.3L11.8 0.3Q8.55 0.3 6.1-0.85 3.65-2 2.27-4.08 0.9-6.15 0.9-8.85L0.9-8.85Q0.9-10.05 1.45-10.48 2-10.9 3-10.9L3-10.9Q3.8-10.9 4.42-10.58 5.05-10.25 5.1-9.45L5.1-9.45Q5.15-7.75 5.9-6.38 6.65-5 8.1-4.25 9.55-3.5 11.65-3.5L11.65-3.5Q14.8-3.5 16.53-5.23 18.25-6.95 18.25-10.6L18.25-10.6 18.25-32.75 11.75-32.75Q11.05-32.75 10.68-33.35 10.3-33.95 10.3-34.7L10.3-34.7Q10.3-35.35 10.63-35.95 10.95-36.55 11.75-36.55L11.75-36.55 20.55-36.55Q21.3-36.55 21.88-36.18 22.45-35.8 22.45-35.05L22.45-35.05 22.45-10.6Q22.45-6.65 21.03-4.25 19.6-1.85 17.18-0.78 14.75 0.3 11.8 0.3ZM39.75 0.3L39.75 0.3Q36.85 0.3 34.4-0.78 31.95-1.85 30.5-4.25 29.05-6.65 29.05-10.6L29.05-10.6 29.05-25.65Q29.05-29.6 30.52-32 32-34.4 34.45-35.48 36.9-36.55 39.8-36.55L39.8-36.55Q43.2-36.55 45.6-35.4 48-34.25 49.3-32.27 50.6-30.3 50.6-27.85L50.6-27.85Q50.6-26.45 50.07-26 49.55-25.55 48.5-25.55L48.5-25.55Q47.5-25.55 46.97-25.95 46.45-26.35 46.4-27L46.4-27Q46.35-27.75 46.12-28.73 45.9-29.7 45.22-30.63 44.55-31.55 43.27-32.15 42-32.75 39.9-32.75L39.9-32.75Q36.7-32.75 34.97-31.03 33.25-29.3 33.25-25.65L33.25-25.65 33.25-10.6Q33.25-6.95 35-5.23 36.75-3.5 40.05-3.5L40.05-3.5Q42.15-3.5 43.37-4.1 44.6-4.7 45.2-5.6 45.8-6.5 46.05-7.53 46.3-8.55 46.4-9.45L46.4-9.45Q46.45-10.2 47-10.55 47.55-10.9 48.5-10.9L48.5-10.9Q49.55-10.9 50.07-10.43 50.6-9.95 50.6-8.55L50.6-8.55Q50.6-6.1 49.27-4.08 47.95-2.05 45.52-0.88 43.1 0.3 39.75 0.3Z" opacity="1" transform="matrix(1,0,0,1,0,0)" fill="#ffffff" class="undefined-text-0" data-fill-palette-color="quaternary" id="text-0"></path></svg></g></svg></g></svg></g></svg></g><g></g></svg></g></svg></g></svg></g></svg></g><defs></defs></svg><rect width="342.85155851775386" height="342.85155851775386" fill="none" stroke="none" visibility="hidden"></rect></g></svg></g></svg>